# xmcd CD Database Entry
#
# Track frame offsets:
# 150
# 18857
# 35644
# 52753
# 69640
# 88054
# 107001
# 123858
# 138812
# 157679
# 176579
# 192878
# 209627
# 227079
# 241559
# 256374
# 275178
# 294010
# 313688
#
# Disc length: 4443 seconds
#
# Revision: 1
# Processed by: cddbd v1.4PL0 Copyright (c) Steve Scherf et al.
# Submitted via: tcd 2.0b
#
DISCID=fd115913
DTITLE=朱子煌
DYEAR=1900
DGENRE=
TTITLE0=第 1 音軌
TTITLE1=第 2 音軌
TTITLE2=第 3 音軌
TTITLE3=第 4 音軌
TTITLE4=第 5 音軌
TTITLE5=第 6 音軌
TTITLE6=第 7 音軌
TTITLE7=第 8 音軌
TTITLE8=第 9 音軌
TTITLE9=第 10 音軌
TTITLE10=第 11 音軌
TTITLE11=第 12 音軌
TTITLE12=第 13 音軌
TTITLE13=第 14 音軌
TTITLE14=第 15 音軌
TTITLE15=第 16 音軌
TTITLE16=第 17 音軌
TTITLE17=第 18 音軌
TTITLE18=第 19 音軌
EXTD=
EXTT0=
EXTT1=
EXTT2=
EXTT3=
EXTT4=
EXTT5=
EXTT6=
EXTT7=
EXTT8=
EXTT9=
EXTT10=
EXTT11=
EXTT12=
EXTT13=
EXTT14=
EXTT15=
EXTT16=
EXTT17=
EXTT18=
PLAYORDER=
